<?xml version="1.0" standalone="no"?>
<!DOCTYPE svg PUBLIC "-//W3C//DTD SVG 20010904//EN"
 "http://www.w3.org/TR/2001/REC-SVG-20010904/DTD/svg10.dtd">
<svg version="1.0" xmlns="http://www.w3.org/2000/svg"
 width="200.000000pt" height="200.000000pt" viewBox="0 0 200.000000 200.000000"
 preserveAspectRatio="xMidYMid meet">
<metadata>
Created by potrace 1.14, written by Peter Selinger 2001-2017
</metadata>
<g transform="translate(0.000000,200.000000) scale(0.100000,-0.100000)"
fill="#000000" stroke="none">
<path d="M303 1799 c-43 -12 -90 -62 -103 -107 -14 -50 -14 -1333 0 -1384 13
-45 77 -105 122 -113 18 -3 334 -5 703 -3 669 3 670 3 705 25 19 12 44 37 55
55 19 32 20 54 23 693 2 363 0 679 -3 703 -8 55 -62 117 -113 132 -47 13
-1344 12 -1389 -1z m112 -109 l20 -8 -20 -7 c-11 -5 -35 -14 -54 -21 -44 -18
-51 -18 -51 6 0 34 56 50 105 30z m318 -19 c21 -21 -4 -24 -71 -12 -102 20
-110 33 -18 27 43 -2 83 -9 89 -15z m640 -4 c41 -18 49 -46 21 -85 -20 -29
-35 -28 -65 4 -25 28 -103 67 -156 78 -18 4 -36 12 -39 18 -11 17 194 4 239
-15z m-741 -162 c10 -4 12 -35 10 -146 -2 -77 -1 -151 2 -165 l7 -25 157 3
157 3 5 158 c4 125 8 160 20 167 18 11 200 13 215 2 6 -4 10 -179 10 -489 l0
-483 -116 0 c-97 0 -118 3 -123 16 -3 9 -6 91 -6 184 l0 168 -62 7 c-35 3
-108 5 -163 3 l-100 -3 -5 -185 -5 -185 -117 -3 -118 -3 0 485 c0 378 3 485
13 489 16 7 202 8 219 2z m935 -698 c88 -59 74 -199 -25 -255 -105 -59 -222
12 -222 134 0 48 4 59 35 93 57 63 143 74 212 28z m-769 -187 c-5 -152 -15
-177 -90 -214 -51 -26 -158 -38 -158 -18 0 5 26 16 58 25 115 32 142 74 149
226 6 130 8 138 29 120 14 -11 16 -33 12 -139z m469 38 c-3 -8 -6 -5 -6 6 -1
11 2 17 5 13 3 -3 4 -12 1 -19z m444 -29 c-9 -23 -10 -22 -10 11 -1 23 2 31 9
24 7 -7 7 -19 1 -35z m-1420 -54 c13 -99 28 -127 81 -159 l42 -25 -29 -7 c-41
-10 -77 14 -94 61 -14 40 -29 225 -17 214 3 -3 11 -41 17 -84z"/>
</g>
</svg>
